<svg width="201" height="32" viewBox="0 0 201 32" fill="none"
    xmlns="http://www.w3.org/2000/svg">
    <g clip-path="url(#clip0_159_991)">
        <path d="M28.2343 0.767578L20.2838 19.2424L12.3334 0.767578H0V31.2311H9.92677V16.3838L16.1153 31.2311H24.0658L30.2529 16.3838V31.2311H30.3057L40.2733 0.767578H28.2343Z" fill="#193241"/>
        <path d="M189.367 0.764474V11.0039H177.978V0.764474H166.884V5.51471C166.087 4.45016 165.118 3.5238 164.016 2.77309C161.298 0.924365 157.631 0 153.014 0C149.148 0 145.854 0.65405 143.131 1.96215C140.716 3.12235 138.81 4.71726 137.415 6.74686V0.764474H80.4287V2.79258C77.4413 1.44051 73.6105 0.764474 68.9363 0.764474H56.2617L66.2262 31.228H68.8472C73.0001 31.228 76.531 30.624 79.4398 29.4158C82.3486 28.2076 84.5474 26.4653 86.036 24.1889C87.5266 21.9134 88.272 19.1828 88.272 15.997C88.272 13.5747 87.9011 11.4411 87.1593 9.5964H91.2976V31.231H102.387V9.5994H109.65V31.231H137.581L138.144 26.3579C139.515 27.9843 141.241 29.2792 143.192 30.1443C145.898 31.3824 149.128 32.0015 152.881 32.0015C157.952 32.0015 162.006 30.8918 165.043 28.6723C165.711 28.184 166.33 27.6318 166.89 27.0234V31.2205H177.978V20.1012H189.367V31.237H200.453V0.764474H189.367ZM75.0599 20.9916C73.7515 22.1008 71.753 22.6554 69.0646 22.6554H64.8101V9.34308H69.1884C71.8225 9.34308 73.7852 9.88371 75.0765 10.965C76.3679 12.0462 77.0126 13.6951 77.0106 15.9116C77.0136 18.189 76.3634 19.8823 75.0599 20.9916ZM120.48 23.4229V19.7534H135.09C135.329 21.021 135.727 22.2539 136.275 23.4229H120.48ZM135.163 11.9888H120.48V8.5756H136.345C135.815 9.66265 135.419 10.8084 135.163 11.9888ZM166.884 19.4132H158.978C158.432 21.9454 156.484 23.211 153.133 23.21C148.55 23.21 146.258 20.8067 146.258 16C146.258 13.6396 146.824 11.8474 147.955 10.6232C149.086 9.39904 150.755 8.78746 152.961 8.78846C154.48 8.78846 155.662 9.05877 156.506 9.5994C157.351 10.14 157.992 11.0219 158.43 12.2451L166.895 11.3907L166.884 19.4132Z" fill="#193241"/>
        <path d="M40.1509 31.2309H56.384L48.3157 8.95923L40.1509 31.2309Z" fill="#193241"/>
    </g>
    <defs>
        <clipPath id="clip0_159_991">
            <rect width="200.453" height="32" fill="white"/>
        </clipPath>
    </defs>
</svg>
